<svg width="123" height="123" viewBox="0 0 123 123" fill="none" xmlns="http://www.w3.org/2000/svg">
<g id="24 / various / planet">
<path id="icon" fill-rule="evenodd" clip-rule="evenodd" d="M101.524 52.5689C106.393 47.333 108.615 42.7979 107.362 40.1116C106.109 37.424 101.203 36.2109 94.0574 36.5765C97.6204 41.2238 100.211 46.656 101.524 52.5689ZM84.2249 27.3689C77.7205 23.0295 69.9056 20.5 61.4999 20.5C40.3891 20.5 23.0049 36.4551 20.7479 56.9646C8.44673 67.5146 2.31917 78.604 6.33699 87.2203C10.3544 95.8357 22.7861 98.2702 38.7727 95.6296C45.2775 99.9699 53.0932 102.5 61.4999 102.5C82.6143 102.5 100.001 86.5394 102.253 66.0248C114.546 55.4779 120.668 44.3931 116.652 35.7797C112.635 27.1659 100.207 24.7307 84.2249 27.3689ZM41.2642 84.6539C34.82 79.0173 30.7499 70.734 30.7499 61.5C30.7499 44.5172 44.5171 30.75 61.4999 30.75C78.2752 30.75 91.913 44.1829 92.2438 60.879C85.7285 65.9032 77.4508 71.0238 67.9921 75.4345C58.5376 79.8432 49.2982 82.892 41.2642 84.6539ZM55.0503 91.5725C60.6598 89.7489 66.4686 87.4545 72.3239 84.7241C78.1831 81.992 83.678 79.0148 88.6833 75.8876C83.5211 85.6206 73.2847 92.25 61.4999 92.25C59.2877 92.25 57.1301 92.0164 55.0503 91.5725ZM28.942 86.423C21.7906 86.7903 16.8805 85.5774 15.6266 82.8884C14.3732 80.2004 16.5983 75.6614 21.4733 70.4214C22.7861 76.3378 25.3773 81.7732 28.942 86.423Z" fill="#5D68BA"/>
</g>
</svg>
