<svg width="123" height="123" viewBox="0 0 123 123" fill="none" xmlns="http://www.w3.org/2000/svg">
<g id="24 / various / toy-horse">
<path id="icon" fill-rule="evenodd" clip-rule="evenodd" d="M21.7099 50.0402L33.042 44.3741L41.4084 61.1068L31.0754 92.1058C32.1183 92.8741 33.2197 93.6186 34.3709 94.3323C41.3476 81.7724 47.306 76.875 58.9376 76.875C71.8609 76.875 82.8958 84.8103 86.1516 95.7784C87.856 94.8427 89.4748 93.8375 90.9838 92.7814C89.0271 90.3297 87.4276 87.6769 86.0815 84.7664C84.6284 81.6246 84.2589 80.5269 82.1575 73.7293C79.0644 63.7235 76.8065 61.5 66.6251 61.5H61.5001C53.5446 61.5 46.1251 54.0805 46.1251 46.125C46.1251 39.9358 41.3695 35.2229 30.6736 32.1127L21.7099 50.0402ZM30.3418 61.8933L22.9815 83.9739C21.3928 81.5682 20.5001 79.1508 20.5001 76.875H10.2501C10.2501 94.683 36.8106 112.75 61.5001 112.75C86.1895 112.75 112.75 94.683 112.75 76.875H102.5C102.5 79.7561 101.069 82.864 98.6071 85.8879C97.3532 84.2364 96.302 82.447 95.3847 80.4637C94.2062 77.9156 93.8886 76.9722 91.9503 70.702C91.0935 67.9306 90.1818 65.4902 89.1488 63.3591C96.1067 60.2427 102.827 61.0444 109.907 65.7643L115.593 57.2358C104.773 50.0226 93.5277 49.3287 82.6261 55.1538C78.8365 52.4599 73.7832 51.25 66.6251 51.25H61.5001C59.2055 51.25 56.3751 48.4196 56.3751 46.125C56.3751 32.879 45.8242 24.4384 26.6302 20.5996L20.5001 19.3735V29.5402L9.13916 52.262L19.4881 62.6109L28.4581 58.1259L30.3418 61.8933ZM43.5529 98.9078C49.2457 101.129 55.4505 102.5 61.5001 102.5C66.5621 102.5 71.7327 101.54 76.6212 99.9255C75.1948 92.7562 67.9184 87.125 58.9376 87.125C52.2675 87.125 48.5863 89.957 43.5529 98.9078Z" fill="#5D68BA"/>
</g>
</svg>
