<svg width="123" height="123" viewBox="0 0 123 123" fill="none" xmlns="http://www.w3.org/2000/svg">
<g id="24 / various / nut">
<path id="icon" fill-rule="evenodd" clip-rule="evenodd" d="M107.625 88.1421V34.8815L61.5 8.25122L15.375 34.8815V88.1421L61.5 114.772L107.625 88.1421ZM25.625 40.7993L61.5 20.0869L97.375 40.7993V82.2242L61.5 102.937L25.625 82.2242V40.7993ZM61.5 87.125C47.3477 87.125 35.875 75.6523 35.875 61.5C35.875 47.3477 47.3477 35.875 61.5 35.875C75.6523 35.875 87.125 47.3477 87.125 61.5C87.125 75.6523 75.6523 87.125 61.5 87.125ZM76.875 61.5C76.875 69.9913 69.9914 76.875 61.5 76.875C53.0086 76.875 46.125 69.9913 46.125 61.5C46.125 53.0086 53.0086 46.125 61.5 46.125C69.9914 46.125 76.875 53.0086 76.875 61.5Z" fill="#5D68BA"/>
</g>
</svg>
