<svg width="123" height="123" viewBox="0 0 123 123" fill="none" xmlns="http://www.w3.org/2000/svg">
<g id="24 / various / infinity">
<path id="icon" fill-rule="evenodd" clip-rule="evenodd" d="M71.2136 48.6587C69.3132 45.1273 67.4613 42.1907 65.534 39.7869C66.1878 39.1163 66.7432 38.5554 67.0766 38.2379C72.6072 32.9706 78.0579 30.75 87.125 30.75C103.607 30.75 117.875 44.0667 117.875 61.5C117.875 78.9333 103.607 92.25 87.125 92.25C72.5059 92.25 66.2954 84.6454 56.8264 63.6031C48.9986 46.2079 44.7454 41 35.875 41C24.3391 41 15.375 50.5738 15.375 61.5C15.375 72.4732 24.2667 82 35.875 82C41.222 82 47.6127 79.8728 53.194 76.8612C55.177 80.2715 57.1403 83.0399 59.2285 85.2386C52.0405 89.3333 43.6192 92.25 35.875 92.25C18.4417 92.25 5.125 77.9821 5.125 61.5C5.125 45.0582 18.5219 30.75 35.875 30.75C50.4941 30.75 56.7046 38.3546 66.1736 59.3969C74.0014 76.7921 78.2546 82 87.125 82C98.0982 82 107.625 73.1083 107.625 61.5C107.625 49.8917 98.0982 41 87.125 41C80.7136 41 77.7869 42.1923 74.1456 45.6603C73.6642 46.1187 72.4661 47.3569 71.2136 48.6587Z" fill="#5D68BA"/>
</g>
</svg>
