<svg width="123" height="123" viewBox="0 0 123 123" fill="none" xmlns="http://www.w3.org/2000/svg">
<g id="24 / basic / heart">
<path id="icon" fill-rule="evenodd" clip-rule="evenodd" d="M84.8353 10.2501C77.416 10.25 72.6335 11.1339 67.1511 13.8174C65.1213 14.8109 63.2171 16.0074 61.4486 17.4033C59.7482 16.0856 57.9201 14.9441 55.9743 13.9817C50.3855 11.2175 45.3577 10.25 38.2045 10.25C19.0467 10.25 5.125 26.1235 5.125 46.7394C5.125 62.3085 13.8059 77.3479 29.9753 91.8907C38.4626 99.5241 49.299 107.078 57.0597 111.097L61.5 113.396L65.9403 111.097C73.701 107.078 84.5374 99.5241 93.0247 91.8907C109.194 77.3479 117.875 62.3085 117.875 46.7394C117.875 26.3417 103.822 10.3287 84.8353 10.2501ZM107.625 46.7394C107.625 58.937 100.379 71.4903 86.1703 84.2697C78.4237 91.237 68.4647 98.1998 61.5 101.853C54.5353 98.1998 44.5763 91.237 36.8297 84.2697C22.6208 71.4903 15.375 58.937 15.375 46.7394C15.375 31.5071 25.0287 20.5 38.2045 20.5C43.8919 20.5 47.3967 21.1744 51.4301 23.1693C53.8125 24.3477 55.9182 25.9037 57.741 27.8481L61.512 31.8708L65.2487 27.8162C67.1124 25.7939 69.2491 24.2025 71.6574 23.0237C75.5726 21.1073 78.8584 20.5 84.8141 20.5C97.8271 20.554 107.625 31.7184 107.625 46.7394Z" fill="#5D68BA"/>
</g>
</svg>
