<svg width="123" height="123" viewBox="0 0 123 123" fill="none" xmlns="http://www.w3.org/2000/svg">
<g id="24 / various / atom">
<path id="icon" fill-rule="evenodd" clip-rule="evenodd" d="M61.5001 22.4074C79.0392 11.6822 95.9629 8.98856 104.987 18.0128C114.011 27.0371 111.318 43.9608 100.593 61.4999C111.318 79.039 114.011 95.9627 104.987 104.987C95.9629 114.011 79.0392 111.318 61.5001 100.592C43.961 111.318 27.0373 114.011 18.013 104.987C8.98875 95.9627 11.6824 79.039 22.4076 61.4999C11.6824 43.9608 8.98875 27.0371 18.013 18.0128C27.0373 8.98856 43.961 11.6822 61.5001 22.4074ZM47.0044 75.9956C42.2567 71.2479 38.1426 66.334 34.7192 61.4999C38.1426 56.6658 42.2567 51.7519 47.0044 47.0042C51.7521 42.2565 56.666 38.1424 61.5001 34.719C66.3342 38.1424 71.2481 42.2565 75.9958 47.0042C80.7435 51.7519 84.8576 56.6658 88.281 61.4999C84.8576 66.334 80.7435 71.2479 75.9958 75.9956C71.2481 80.7433 66.3342 84.8574 61.5001 88.2808C56.666 84.8574 51.7521 80.7433 47.0044 75.9956ZM25.2609 97.7391C20.8458 93.324 22.3862 82.9198 28.8714 70.8753C32.0942 75.0703 35.7394 79.2263 39.7566 83.2434C43.7737 87.2606 47.9297 90.9058 52.1247 94.1286C40.0802 100.614 29.676 102.154 25.2609 97.7391ZM39.7566 39.7564C43.7737 35.7392 47.9297 32.094 52.1247 28.8713C40.0802 22.386 29.676 20.8456 25.2609 25.2607C20.8458 29.6758 22.3862 40.08 28.8714 52.1245C32.0942 47.9295 35.7394 43.7736 39.7566 39.7564ZM83.2436 39.7564C79.2264 35.7392 75.0705 32.094 70.8755 28.8713C82.92 22.386 93.3242 20.8456 97.7393 25.2607C102.154 29.6758 100.614 40.08 94.1287 52.1245C90.906 47.9295 87.2608 43.7736 83.2436 39.7564ZM70.8755 94.1286C75.0705 90.9058 79.2264 87.2606 83.2436 83.2434C87.2608 79.2263 90.906 75.0703 94.1287 70.8753C100.614 82.9198 102.154 93.324 97.7393 97.7391C93.3242 102.154 82.92 100.614 70.8755 94.1286ZM61.5001 56.3749C58.6696 56.3749 56.3751 58.6694 56.3751 61.4999C56.3751 64.3304 58.6696 66.6249 61.5001 66.6249C64.3306 66.6249 66.6251 64.3304 66.6251 61.4999C66.6251 58.6694 64.3306 56.3749 61.5001 56.3749Z" fill="#5D68BA"/>
</g>
</svg>
