<svg width="123" height="123" viewBox="0 0 150 150" fill="none" xmlns="http://www.w3.org/2000/svg">
  <g id="24 / various / rocket" transform="translate(-15, -15)">
    <path id="icon" fill-rule="evenodd" clip-rule="evenodd" d="M54.8846 91.124L67.5684 103.808L63.9444 129.175L83.876 149.107L98.3717 134.611C102.375 138.614 108.865 138.614 112.867 134.611L120.115 127.363L123.739 130.987L130.987 123.739L127.363 120.115L134.611 112.867C138.614 108.865 138.614 102.375 134.611 98.3718L149.107 83.8761L129.175 63.9445L103.808 67.5685L91.1239 54.8847C79.6865 43.4474 58.8218 36.4519 47.6368 47.6369C36.4518 58.8219 43.4473 79.6866 54.8846 91.124ZM120.115 112.867L127.363 105.62L91.1239 69.3804L83.876 62.1326C75.9296 54.1862 60.692 49.0773 54.8846 54.8847C49.0772 60.6921 54.1861 75.9297 62.1325 83.8761L69.3803 91.124L105.62 127.363L112.867 120.115L91.1239 98.3718L98.3717 91.124L120.115 112.867ZM74.8162 125.551L76.6282 112.867L91.1239 127.363L83.876 134.611L74.8162 125.551ZM127.363 91.124L112.867 76.6283L125.551 74.8163L134.611 83.8761L127.363 91.124ZM83.876 83.8761C79.8731 87.879 73.3832 87.879 69.3803 83.8761C65.3774 79.8732 65.3774 73.3833 69.3803 69.3804C73.3832 65.3776 79.8731 65.3776 83.876 69.3804C87.8789 73.3833 87.8789 79.8732 83.876 83.8761Z" fill="#5D68BA"/>
  </g>
</svg>
